<svg width="276" height="226" viewBox="0 0 276 226" fill="none" xmlns="http://www.w3.org/2000/svg">
<path d="M9.85156 103.825V106.156" stroke="#D2D8DF" stroke-width="2.921" stroke-linecap="round"/>
<path d="M4.60938 105.088L6.51475 107.049" stroke="#D2D8DF" stroke-width="2.921" stroke-linecap="round"/>
<path d="M2.38281 110.309H5.07743" stroke="#D2D8DF" stroke-width="2.921" stroke-linecap="round"/>
<path d="M4.39453 115.623L6.2999 113.662" stroke="#D2D8DF" stroke-width="2.921" stroke-linecap="round"/>
<path d="M9.85156 116.261V113.929" stroke="#D2D8DF" stroke-width="2.921" stroke-linecap="round"/>
<path d="M13.7345 114.706L12.1797 113.152" stroke="#D2D8DF" stroke-width="2.921" stroke-linecap="round"/>
<path d="M16.8435 110.82H14.5117" stroke="#D2D8DF" stroke-width="2.921" stroke-linecap="round"/>
<path d="M15.2891 105.379L13.7344 106.934" stroke="#D2D8DF" stroke-width="2.921" stroke-linecap="round"/>
<path d="M134.996 2V3.55476" stroke="#D2D8DF" stroke-width="2.921" stroke-linecap="round"/>
<path d="M130.328 6.66357H131.883" stroke="#D2D8DF" stroke-width="2.921" stroke-linecap="round"/>
<path d="M134.996 11.3278V9.77307" stroke="#D2D8DF" stroke-width="2.921" stroke-linecap="round"/>
<path d="M138.879 6.66357H137.324" stroke="#D2D8DF" stroke-width="2.921" stroke-linecap="round"/>
<path d="M44.8281 67.2917V69.6243" stroke="#D2D8DF" stroke-width="2.921" stroke-linecap="round"/>
<path d="M37.832 74.2878H40.1638" stroke="#D2D8DF" stroke-width="2.921" stroke-linecap="round"/>
<path d="M44.8281 80.5061V78.1743" stroke="#D2D8DF" stroke-width="2.921" stroke-linecap="round"/>
<path d="M51.0466 74.2878H48.7148" stroke="#D2D8DF" stroke-width="2.921" stroke-linecap="round"/>
<path d="M212.141 152.047C213.999 152.047 215.505 153.554 215.505 155.412C215.505 157.271 213.999 158.776 212.141 158.776C210.284 158.776 208.777 157.271 208.777 155.412" stroke="#D2D8DF" stroke-width="2.921" stroke-linecap="round"/>
<path fill-rule="evenodd" clip-rule="evenodd" d="M227.535 121.518C229.532 120.896 232.594 118.452 233.303 115.824C233.946 118.147 236.64 120.896 239.071 121.103C236.335 122.072 233.718 124.95 233.303 127.212C233.021 124.907 229.401 121.854 227.535 121.518Z" fill="#EBECEE"/>
<path fill-rule="evenodd" clip-rule="evenodd" d="M22.4961 151.01C23.4951 150.699 25.0254 149.478 25.3798 148.163C25.7013 149.325 27.0479 150.699 28.2635 150.803C26.8955 151.287 25.5873 152.727 25.3798 153.857C25.2382 152.704 23.4293 151.178 22.4961 151.01Z" fill="#EBECEE"/>
<path fill-rule="evenodd" clip-rule="evenodd" d="M41.0373 42.8832C41.0373 44.3247 39.8691 45.4921 38.4292 45.4921C36.9877 45.4921 35.8203 44.3247 35.8203 42.8832C35.8203 41.4425 36.9877 40.2736 38.4292 40.2736C39.8691 40.2736 41.0373 41.4425 41.0373 42.8832Z" fill="#D1D8DF"/>
<path fill-rule="evenodd" clip-rule="evenodd" d="M215.225 49.8892C215.225 52.2975 213.272 54.2504 210.864 54.2504C208.456 54.2504 206.504 52.2975 206.504 49.8892C206.504 47.4809 208.456 45.5281 210.864 45.5281C213.272 45.5281 215.225 47.4809 215.225 49.8892Z" fill="#EBECEE"/>
<path fill-rule="evenodd" clip-rule="evenodd" d="M275.615 38.0735C275.615 39.9842 274.067 41.5329 272.157 41.5329C270.247 41.5329 268.699 39.9842 268.699 38.0735C268.699 36.1628 270.247 34.6141 272.157 34.6141C274.067 34.6141 275.615 36.1628 275.615 38.0735Z" fill="#EBECEE"/>
<path d="M89.7901 199.639C89.7901 200.843 88.814 201.82 87.6099 201.82C86.4057 201.82 85.4297 200.843 85.4297 199.639C85.4297 198.434 86.4057 197.458 87.6099 197.458C88.814 197.458 89.7901 198.434 89.7901 199.639Z" stroke="#D2D8DF" stroke-width="2.921" stroke-linecap="round"/>
<path d="M88.4912 26.1207C88.4912 27.5622 87.323 28.7296 85.8823 28.7296C84.4416 28.7296 83.2734 27.5622 83.2734 26.1207C83.2734 24.68 84.4416 23.5118 85.8823 23.5118C87.323 23.5111 88.4912 24.68 88.4912 26.1207Z" stroke="#D2D8DF" stroke-width="2.921" stroke-linecap="round"/>
<path d="M155.027 223.788C153.36 224.423 151.495 223.585 150.861 221.918C150.226 220.251 151.063 218.384 152.73 217.75C154.397 217.117 156.262 217.953 156.896 219.621C157.531 221.288 156.694 223.153 155.027 223.788Z" stroke="#D2D8DF" stroke-width="2.921" stroke-linecap="round"/>
<path fill-rule="evenodd" clip-rule="evenodd" d="M154.036 162.121H90.2956C85.8089 162.121 82.1367 158.438 82.1367 153.936V63.0386C82.1367 58.5373 85.8089 54.856 90.2956 54.856H154.036C158.525 54.856 162.198 58.5373 162.198 63.0386V153.936C162.198 158.438 158.525 162.121 154.036 162.121Z" fill="#E0E2EE"/>
<path fill-rule="evenodd" clip-rule="evenodd" d="M148.596 166.007H84.8542C80.3675 166.007 76.6953 162.325 76.6953 157.823V66.9251C76.6953 62.4231 80.3675 58.7417 84.8542 58.7417H148.596C153.084 58.7417 156.756 62.4231 156.756 66.9251V157.823C156.756 162.325 153.084 166.007 148.596 166.007Z" fill="#E8EBF2"/>
<path fill-rule="evenodd" clip-rule="evenodd" d="M143.302 169.076H79.4296C74.9337 169.076 71.2539 165.408 71.2539 160.925V70.4036C71.2539 65.9207 74.9337 62.2546 79.4296 62.2546H143.302C147.8 62.2546 151.48 65.9207 151.48 70.4036V160.925C151.48 165.408 147.8 169.076 143.302 169.076Z" fill="#D8DBEA"/>
<path fill-rule="evenodd" clip-rule="evenodd" d="M143.302 169.076H79.4296C74.9337 169.076 71.2539 165.408 71.2539 160.925V70.4036C71.2539 65.9207 74.9337 62.2546 79.4296 62.2546H143.302C147.8 62.2546 151.48 65.9207 151.48 70.4036V160.925C151.48 165.408 147.8 169.076 143.302 169.076Z" fill="#F1F2F7"/>
<path fill-rule="evenodd" clip-rule="evenodd" d="M134.096 89.8332H86.9192C85.5719 89.8332 84.4688 88.7844 84.4688 87.5022C84.4688 86.2192 85.5719 85.1697 86.9192 85.1697H134.096C135.444 85.1697 136.547 86.2192 136.547 87.5022C136.547 88.7844 135.444 89.8332 134.096 89.8332Z" fill="#E0E2EE"/>
<path fill-rule="evenodd" clip-rule="evenodd" d="M134.096 103.825H86.9192C85.5719 103.825 84.4688 102.776 84.4688 101.494C84.4688 100.21 85.5719 99.161 86.9192 99.161H134.096C135.444 99.161 136.547 100.21 136.547 101.494C136.547 102.776 135.444 103.825 134.096 103.825Z" fill="#E0E2EE"/>
<path fill-rule="evenodd" clip-rule="evenodd" d="M134.096 117.816H86.9192C85.5719 117.816 84.4688 116.766 84.4688 115.485C84.4688 114.203 85.5719 113.152 86.9192 113.152H134.096C135.444 113.152 136.547 114.203 136.547 115.485C136.547 116.766 135.444 117.816 134.096 117.816Z" fill="#E0E2EE"/>
<path fill-rule="evenodd" clip-rule="evenodd" d="M134.096 131.807H86.9192C85.5719 131.807 84.4688 130.758 84.4688 129.476C84.4688 128.192 85.5719 127.143 86.9192 127.143H134.096C135.444 127.143 136.547 128.192 136.547 129.476C136.547 130.758 135.444 131.807 134.096 131.807Z" fill="#E0E2EE"/>
<path fill-rule="evenodd" clip-rule="evenodd" d="M111.545 145.798H86.9291C85.5764 145.798 84.4688 144.749 84.4688 143.467C84.4688 142.184 85.5764 141.134 86.9291 141.134H111.545C112.898 141.134 114.005 142.184 114.005 143.467C114.005 144.749 112.898 145.798 111.545 145.798Z" fill="#E0E2EE"/>
<path fill-rule="evenodd" clip-rule="evenodd" d="M161.228 127.716C151.794 137.148 137.19 138.212 126.587 130.93C125.232 129.982 123.942 128.918 122.74 127.716C122.12 127.099 121.537 126.462 120.987 125.792C119.887 124.452 118.924 123.025 118.134 121.549C116.743 119.057 115.798 116.413 115.282 113.68C113.616 105.108 116.107 95.8816 122.74 89.2522C129.388 82.6022 138.616 80.1281 147.189 81.7777C149.921 82.3098 152.567 83.2552 155.06 84.6301C156.538 85.4369 157.946 86.3999 159.287 87.4992C159.956 88.0473 160.593 88.6329 161.21 89.2522C162.415 90.4541 163.495 91.7417 164.424 93.099C171.71 103.698 170.644 118.301 161.228 127.716Z" fill="white" fill-opacity="0.1"/>
<path fill-rule="evenodd" clip-rule="evenodd" d="M158.588 125.858C148.773 135.675 132.868 135.672 123.052 125.858C113.249 116.054 113.249 100.148 123.065 90.3331C132.868 80.5299 148.773 80.5299 158.577 90.3331C168.391 100.148 168.391 116.054 158.588 125.858ZM163.625 85.2906C151.027 72.6925 130.613 72.6925 118.015 85.2906C105.419 97.8865 105.408 118.314 118.004 130.912C129.469 142.373 147.44 143.407 160.08 133.996C161.315 133.076 162.504 132.044 163.637 130.912C164.77 129.777 165.801 128.588 166.72 127.354C176.131 114.713 175.089 96.7543 163.625 85.2906Z" fill="#E0E2EE"/>
<path fill-rule="evenodd" clip-rule="evenodd" d="M213.203 178.399L212.674 178.928C209.175 182.429 203.445 182.429 199.945 178.928L167.637 146.62L180.895 133.361L213.203 165.669C216.704 169.17 216.704 174.898 213.203 178.399Z" fill="url(#paint0_linear_2896_146215)"/>
<path fill-rule="evenodd" clip-rule="evenodd" d="M167.42 126.366L176.968 135.913L170.19 142.689L160.645 133.142C161.905 132.202 163.116 131.15 164.275 129.995C165.43 128.839 166.483 127.626 167.42 126.366Z" fill="#E0E2EE"/>
<path fill-rule="evenodd" clip-rule="evenodd" d="M212.718 165.272L199.543 178.444L197.172 176.071L210.344 162.899L212.718 165.272Z" fill="#D88115"/>
<path fill-rule="evenodd" clip-rule="evenodd" d="M181.628 133.818L168.093 147.353L166.082 145.342L179.617 131.807L181.628 133.818Z" fill="url(#paint1_linear_2896_146215)"/>
<path fill-rule="evenodd" clip-rule="evenodd" d="M152.092 86.9564L118.899 120.148C117.649 117.907 116.798 115.53 116.336 113.073L145.016 84.3927C147.472 84.8727 149.851 85.7209 152.092 86.9564Z" fill="white" fill-opacity="0.5"/>
<path fill-rule="evenodd" clip-rule="evenodd" d="M162.974 94.8459L127.089 128.698C125.803 127.852 124.58 126.9 123.439 125.823C122.852 125.27 122.297 124.702 121.777 124.102L158.1 89.8333C158.736 90.3255 159.34 90.8491 159.925 91.4033C161.065 92.4796 162.092 93.6318 162.974 94.8459Z" fill="white" fill-opacity="0.5"/>
<defs>
<linearGradient id="paint0_linear_2896_146215" x1="217.698" y1="135.232" x2="169.506" y2="183.423" gradientUnits="userSpaceOnUse">
<stop stop-color="#F7931E"/>
<stop offset="1" stop-color="#F9B015"/>
</linearGradient>
<linearGradient id="paint1_linear_2896_146215" x1="181.628" y1="131.807" x2="166.082" y2="147.352" gradientUnits="userSpaceOnUse">
<stop stop-color="#D88115"/>
<stop offset="1" stop-color="#F9B015"/>
</linearGradient>
</defs>
</svg>
